<svg width="65" height="65" viewBox="0 0 65 65" fill="none" xmlns="http://www.w3.org/2000/svg">
<path d="M22.5 43.5C10.902 43.5 1.5 34.098 1.5 22.5C1.5 10.902 10.902 1.5 22.5 1.5C34.098 1.5 43.5 10.902 43.5 22.5V22.5365V22.5731V22.6097V22.6464V22.6832V22.72V22.7568V22.7938V22.8307V22.8678V22.9049V22.942V22.9792V23.0165V23.0538V23.0911V23.1286V23.1661V23.2036V23.2412V23.2788V23.3165V23.3543V23.3921V23.43V23.4679V23.5058V23.5439V23.582V23.6201V23.6583V23.6965V23.7348V23.7731V23.8115V23.85V23.8885V23.927V23.9656V24.0043V24.043V24.0818V24.1206V24.1594V24.1983V24.2373V24.2763V24.3154V24.3545V24.3937V24.4329V24.4721V24.5114V24.5508V24.5902V24.6297V24.6692V24.7087V24.7483V24.788V24.8277V24.8674V24.9072V24.9471V24.987V25.0269V25.0669V25.1069V25.147V25.1871V25.2273V25.2675V25.3078V25.3481V25.3884V25.4288V25.4693V25.5098V25.5503V25.5909V25.6315V25.6722V25.7129V25.7537V25.7945V25.8353V25.8762V25.9171V25.9581V25.9991V26.0402V26.0813V26.1224V26.1636V26.2049V26.2461V26.2874V26.3288V26.3702V26.4116V26.4531V26.4946V26.5362V26.5778V26.6195V26.6611V26.7029V26.7446V26.7864V26.8283V26.8702V26.9121V26.954V26.996V27.0381V27.0802V27.1223V27.1644V27.2066V27.2489V27.2911V27.3334V27.3758V27.4182V27.4606V27.503V27.5455V27.5881V27.6306V27.6732V27.7159V27.7585V27.8012V27.844V27.8868V27.9296V27.9724V28.0153V28.0582V28.1012V28.1442V28.1872V28.2303V28.2734V28.3165V28.3596V28.4028V28.4461V28.4893V28.5326V28.5759V28.6193V28.6627V28.7061V28.7495V28.793V28.8365V28.8801V28.9237V28.9673V29.0109V29.0546V29.0983V29.142V29.1858V29.2296V29.2734V29.3173V29.3611V29.405V29.449V29.493V29.537V29.581V29.625V29.6691V29.7132V29.7574V29.8015V29.8457V29.89V29.9342V29.9785V30.0228V30.0671V30.1115V30.1559V30.2003V30.2447V30.2892V30.3337V30.3782V30.4227V30.4673V30.5119V30.5565V30.6011V30.6458V30.6905V30.7352V30.78V30.8247V30.8695V30.9143V30.9591V31.004V31.0489V31.0938V31.1387V31.1837V31.2286V31.2736V31.3186V31.3637V31.4087V31.4538V31.4989V31.544V31.5892V31.6343V31.6795V31.7247V31.77V31.8152V31.8605V31.9058V31.9511V31.9964V32.0417V32.0871V32.1325V32.1779V32.2233V32.2687V32.3142V32.3597V32.4052V32.4507V32.4962V32.5417V32.5873V32.6329V32.6785V32.7241V32.7697V32.8154V32.861V32.9067V32.9524V32.9981V33.0439V33.0896V33.1354V33.1811V33.2269V33.2727V33.3185V33.3644V33.4102V33.4561V33.5019V33.5478V33.5937V33.6396V33.6856V33.7315V33.7775V33.8234V33.8694V33.9154V33.9614V34.0074V34.0534V34.0995V34.1455V34.1916V34.2377V34.2838V34.3298V34.376V34.4221V34.4682V34.5143V34.5605V34.6066V34.6528V34.699V34.7452V34.7913V34.8376V34.8838V34.93V34.9762V35.0224V35.0687V35.1149V35.1612V35.2075V35.2537V35.3V35.3463V35.3926V35.4389V35.4852V35.5315V35.5779V35.6242V35.6705V35.7169V35.7632V35.8096V35.8559V35.9023V35.9486V35.995V36.0414V36.0878V36.1341V36.1805V36.2269V36.2733V36.3197V36.3661V36.4125V36.4589V36.5053V36.5517V36.5982V36.6446V36.691V36.7374V36.7838V36.8303V36.8767V36.9231V36.9695V37.016V37.0624V37.1088V37.1553V37.2017V37.2481V37.2946V37.341V37.3874V37.4338V37.4803V37.5267V37.5731V37.6196V37.666V37.7124V37.7588V37.8052V37.8517V37.8981V37.9445V37.9909V38.0373V38.0837V38.1301V38.1765V38.2229V38.2693V38.3157V38.362V38.4084V38.4548V38.5012V38.5475V38.5939V38.6402V38.6866V38.7329V38.7793V38.8256V38.8719V38.9182V38.9646V39.0109V39.0572V39.1035V39.1497V39.196V39.2423V39.2886V39.3348V39.3811V39.4273V39.4735V39.5198V39.566V39.6122V39.6584V39.7046V39.7508V39.7969V39.8431V39.8892V39.9354V39.9815V40.0276V40.0737V40.1199V40.1659V40.212V40.2581V40.3041V40.3502V40.3962V40.4423V40.4883V40.5343V40.5802V40.6262V40.6722V40.7181V40.7641V40.81V40.8559V40.9018V40.9477V40.9935V41.0394V41.0852V41.1311V41.1769V41.2227V41.2685V41.3142V41.36V41.4057V41.4514V41.4972V41.5428V41.5885V41.6342V41.6798V41.7254V41.771V41.8166V41.8622V41.9078V41.9533V41.9988V42.0443V42.0898V42.1353V42.1807V42.2262V42.2716V42.317V42.3624V42.4077V42.4531V42.4984V42.5437V42.589V42.6342V42.6795V42.7247V42.7699V42.8151V42.8602V42.9053V42.9505V42.9956V43.0406V43.0857V43.1307V43.1757V43.2207V43.2657V43.3106V43.3555V43.4004V43.4453V43.4901V43.5H43.4815H43.4439H43.4063H43.3685H43.3306H43.2926H43.2546H43.2164H43.1782H43.1398H43.1014H43.0628H43.0242H42.9855H42.9467H42.9078H42.8688H42.8297H42.7905H42.7513H42.7119H42.6725H42.6329H42.5933H42.5536H42.5138H42.474H42.434H42.3939H42.3538H42.3136H42.2733H42.2329H42.1924H42.1519H42.1112H42.0705H42.0297H41.9888H41.9478H41.9068H41.8657H41.8245H41.7832H41.7418H41.7004H41.6588H41.6172H41.5756H41.5338H41.492H41.4501H41.4081H41.366H41.3239H41.2817H41.2394H41.1971H41.1546H41.1121H41.0696H41.0269H40.9842H40.9414H40.8986H40.8556H40.8126H40.7696H40.7265H40.6833H40.64H40.5966H40.5532H40.5098H40.4662H40.4226H40.379H40.3352H40.2914H40.2476H40.2036H40.1597H40.1156H40.0715H40.0273H39.9831H39.9388H39.8944H39.85H39.8055H39.761H39.7164H39.6717H39.627H39.5823H39.5374H39.4925H39.4476H39.4026H39.3576H39.3124H39.2673H39.2221H39.1768H39.1315H39.0861H39.0407H38.9952H38.9496H38.9041H38.8584H38.8127H38.767H38.7212H38.6754H38.6295H38.5836H38.5376H38.4916H38.4455H38.3994H38.3532H38.307H38.2607H38.2144H38.1681H38.1217H38.0752H38.0288H37.9822H37.9357H37.8891H37.8424H37.7957H37.749H37.7022H37.6554H37.6086H37.5617H37.5148H37.4678H37.4208H37.3738H37.3267H37.2796H37.2324H37.1852H37.138H37.0908H37.0435H36.9962H36.9488H36.9014H36.854H36.8065H36.7591H36.7115H36.664H36.6164H36.5688H36.5212H36.4735H36.4258H36.3781H36.3303H36.2826H36.2348H36.1869H36.1391H36.0912H36.0433H35.9953H35.9474H35.8994H35.8514H35.8034H35.7553H35.7072H35.6591H35.611H35.5629H35.5147H35.4666H35.4184H35.3701H35.3219H35.2736H35.2254H35.1771H35.1288H35.0804H35.0321H34.9837H34.9354H34.887H34.8386H34.7902H34.7417H34.6933H34.6448H34.5964H34.5479H34.4994H34.4509H34.4024H34.3538H34.3053H34.2568H34.2082H34.1596H34.1111H34.0625H34.0139H33.9653H33.9167H33.8681H33.8195H33.7709H33.7222H33.6736H33.625H33.5764H33.5277H33.4791H33.4304H33.3818H33.3331H33.2845H33.2358H33.1872H33.1385H33.0899H33.0413H32.9926H32.944H32.8953H32.8467H32.7981H32.7494H32.7008H32.6522H32.6036H32.555H32.5063H32.4577H32.4092H32.3606H32.312H32.2634H32.2149H32.1663H32.1178H32.0692H32.0207H31.9722H31.9237H31.8752H31.8267H31.7782H31.7298H31.6813H31.6329H31.5845H31.5361H31.4877H31.4393H31.391H31.3426H31.2943H31.246H31.1977H31.1495H31.1012H31.053H31.0048H30.9566H30.9084H30.8602H30.8121H30.764H30.7159H30.6678H30.6198H30.5717H30.5237H30.4758H30.4278H30.3799H30.332H30.2841H30.2362H30.1884H30.1406H30.0928H30.0451H29.9974H29.9497H29.902H29.8544H29.8068H29.7592H29.7117H29.6642H29.6167H29.5692H29.5218H29.4744H29.4271H29.3798H29.3325H29.2852H29.238H29.1908H29.1437H29.0966H29.0495H29.0025H28.9555H28.9085H28.8616H28.8147H28.7679H28.7211H28.6743H28.6276H28.5809H28.5343H28.4877H28.4411H28.3946H28.3481H28.3017H28.2553H28.209H28.1627H28.1164H28.0702H28.0241H27.9779H27.9319H27.8859H27.8399H27.794H27.7481H27.7022H27.6565H27.6107H27.5651H27.5194H27.4739H27.4283H27.3829H27.3374H27.2921H27.2467H27.2015H27.1563H27.1111H27.066H27.021H26.976H26.931H26.8862H26.8414H26.7966H26.7519H26.7072H26.6626H26.6181H26.5736H26.5292H26.4849H26.4406H26.3964H26.3522H26.3081H26.2641H26.2201H26.1762H26.1323H26.0885H26.0448H26.0011H25.9576H25.914H25.8706H25.8272H25.7838H25.7406H25.6974H25.6543H25.6112H25.5682H25.5253H25.4825H25.4397H25.397H25.3544H25.3118H25.2693H25.2269H25.1846H25.1423H25.1001H25.058H25.0159H24.9739H24.9321H24.8902H24.8485H24.8068H24.7652H24.7237H24.6823H24.6409H24.5997H24.5585H24.5174H24.4763H24.4354H24.3945H24.3537H24.313H24.2724H24.2318H24.1914H24.151H24.1107H24.0705H24.0304H23.9903H23.9504H23.9105H23.8707H23.831H23.7914H23.7519H23.7125H23.6731H23.6339H23.5947H23.5557H23.5167H23.4778H23.439H23.4003H23.3617H23.3232H23.2847H23.2464H23.2081H23.17H23.132H23.094H23.0561H23.0184H22.9807H22.9431H22.9057H22.8683H22.831H22.7938H22.7567H22.7198H22.6829H22.6461H22.6094H22.5729H22.5364H22.5Z" stroke="white" stroke-width="3"/>
<path d="M26 48.6774V63H63V26H26V39.129" stroke="white" stroke-width="3"/>
</svg>
